<?xml version="1.0" encoding="UTF-8"?>
<svg width="41px" height="48px" viewBox="0 0 41 48" version="1.1" xmlns="http://www.w3.org/2000/svg" xmlns:xlink="http://www.w3.org/1999/xlink">
    <title>Frame 125</title>
    <g id="Symbols" stroke="none" stroke-width="1" fill="none" fill-rule="evenodd">
        <g id="Frame-125">
            <path d="M0,0 L40,0 L40,48 L0,48 L0,0 Z" id="Frame-125-(Background)"></path>
            <g id="Vector" transform="translate(4.313415, 7.822675)" fill="#484848">
                <path d="M24.0261014,22.7349095 C23.2379251,23.5230859 21.9242977,23.5756319 21.0835762,22.7349104 C20.2953998,21.9467341 20.2428547,20.6331056 21.0835761,19.7923842 C21.9242975,18.9516628 23.1853799,18.9516638 24.0261013,19.7923853 C24.8142777,20.5805617 24.8668229,21.8941881 24.0261014,22.7349095 Z M18.8766821,27.3588779 C18.193596,28.041964 17.1426939,28.041965 16.4596078,27.3588788 C15.7765216,26.6757927 15.7765216,25.6248896 16.4596077,24.9418035 C17.1426938,24.2587174 18.1935969,24.2587174 18.8766831,24.9418036 C19.5597692,25.6248897 19.5597682,26.6757918 18.8766821,27.3588779 Z M27.1788067,17.1651309 C28.2297085,18.2160327 28.7551588,19.5822042 28.7026137,21.0009216 L32.2231346,21.1585571 C32.3282248,21.1585571 32.4858602,21.211102 32.6434955,21.2636471 C32.8011307,21.3161922 32.9062206,21.4212827 32.9587657,21.4738278 C33.0638559,21.578918 33.1689464,21.6840079 33.1689464,21.7890981 C33.2214915,21.9467333 33.2214922,22.0518244 33.2214922,22.1569146 C33.2214922,22.2620048 33.1689469,22.4196394 33.1689469,22.5247296 C33.1164018,22.6823649 33.0638559,22.7349092 32.9587657,22.8399994 C32.8536756,22.9450895 32.8011313,22.9976354 32.643496,23.0501805 C32.4858607,23.1027256 32.3807707,23.1027263 32.2756805,23.1027263 L28.2822539,22.8925455 C28.0195285,23.3654513 27.7042564,23.8909014 27.3364407,24.258717 L24.2362807,27.3588771 L26.9686259,30.0912222 C27.0737161,30.1963124 27.178806,30.3014028 27.178806,30.406493 C27.2313511,30.5641282 27.2313523,30.6692188 27.2313523,30.774309 C27.2313523,30.8793992 27.1788071,31.0370339 27.1788071,31.142124 C27.1262612,31.2997585 27.0737161,31.3523036 26.9686259,31.4573938 C26.8635357,31.5624839 26.7584456,31.6675741 26.6533562,31.6675749 C26.4957209,31.72012 26.3906303,31.7201212 26.2855401,31.7201212 C26.18045,31.7201212 26.0228143,31.6675749 25.9177241,31.6675749 C25.7600888,31.6150298 25.7075436,31.5624849 25.6024534,31.4573947 L22.8701082,28.7250496 L22.1344772,29.4606806 C21.1361205,30.4590373 19.9275854,31.1421238 18.7190484,31.4048492 L18.9817719,36.2915422 C18.9817719,36.3966324 18.9292277,36.5542701 18.9292277,36.6593603 C18.8766826,36.8169955 18.8241367,36.8695398 18.7190465,36.97463 C18.6139563,37.0797202 18.508867,37.1848112 18.4037768,37.1848112 C18.2461415,37.2373562 18.193596,37.2898985 18.0359608,37.2373534 C17.9308706,37.2373534 17.7732369,37.1848091 17.6681467,37.1848091 C17.5105114,37.132264 17.4579652,37.0797201 17.352875,36.97463 C17.2477848,36.8695398 17.1426958,36.7644484 17.1426958,36.6593582 C17.0901507,36.5017229 17.0901503,36.3966332 17.0376052,36.2389979 L16.7748796,31.4573955 C16.5646993,31.4573955 16.4070628,31.4048492 16.1968824,31.4048492 L9.52365556,30.4064935 C8.78802428,30.3014033 8.1574838,29.7759522 7.84221324,29.0403209 C7.63203287,28.3046896 7.78966891,27.5165125 8.31511979,26.9910616 L17.7732357,17.5329456 C19.139408,16.1667734 20.7157599,15.4311429 22.5548381,15.3785979 C24.4464613,15.3785979 25.9702696,15.9565938 27.1788067,17.1651309 C27.2138367,17.2001609 27.2138367,17.2001609 27.1788067,17.1651309 Z M13.9899887,12.6987968 C13.2018124,13.4869732 11.888185,13.5395192 11.0474635,12.6987977 C10.2592871,11.9106214 10.2067425,10.5969934 11.0474639,9.756272 C11.8881853,8.91555057 13.2018123,8.96809621 13.9899886,9.75627258 C14.778165,10.544449 14.8307102,11.8580754 13.9899887,12.6987968 Z M12.728906,5.02721393 L12.5712708,1.50669324 C12.5712708,1.40160306 12.5187258,1.24396769 12.4661807,1.08633242 C12.4136356,0.928697145 12.3085452,0.823607265 12.2560001,0.771062173 C12.1509099,0.665971988 12.04582,0.560881506 11.9407298,0.560881503 C11.7830945,0.508336407 11.6780042,0.508336455 11.572914,0.508336452 C11.4678239,0.508336449 11.3101888,0.56088136 11.2050986,0.560881357 C11.0474634,0.613426443 10.9949182,0.665971454 10.889828,0.771061633 C10.7847378,0.876151812 10.7321928,0.928696972 10.6796477,1.08633224 C10.6271027,1.24396751 10.6271023,1.34905797 10.6271023,1.45414815 L10.7847378,5.50011999 C10.311832,5.76284542 9.78638067,6.07811631 9.41856506,6.44593193 L6.37095032,9.49354667 L3.63860559,6.76120194 C3.53351541,6.65611176 3.42842502,6.55102178 3.32333484,6.55102177 C3.16569957,6.49847668 3.06060981,6.49847629 2.95551962,6.49847628 C2.85042944,6.49847628 2.69279438,6.55102117 2.5877042,6.55102116 C2.37752383,6.55102116 2.27243346,6.65611153 2.16734328,6.76120171 C2.0622531,6.86629189 1.95716293,6.97138207 1.95716293,7.07647225 C1.90461784,7.23410752 1.90461805,7.3391975 1.90461805,7.44428768 C1.90461805,7.54937786 1.95716253,7.70701371 2.00970763,7.86464899 C2.06225272,8.02228426 2.11479761,8.07482955 2.2198878,8.17991974 L5.00477756,10.9648095 L4.26914652,11.7004405 C3.27078985,12.6987972 2.5877038,13.9073348 2.32497838,15.1158718 L-2.56171398,14.8531449 C-2.66680416,14.8531449 -2.8244402,14.9056908 -2.92953038,14.9056908 C-3.08716566,14.9582359 -3.13971082,15.0107809 -3.24480099,15.1158711 C-3.34989117,15.2209612 -3.45498127,15.3260515 -3.45498127,15.4311417 C-3.50752636,15.5887769 -3.56007227,15.6413228 -3.50752718,15.7989581 C-3.50752717,15.9040483 -3.45498175,16.0616831 -3.45498175,16.1667732 C-3.40243666,16.3244085 -3.34989076,16.3769528 -3.24480058,16.482043 C-3.1397104,16.5871332 -3.03462102,16.6922242 -2.92953084,16.6922242 C-2.77189556,16.7447692 -2.66680579,16.7447697 -2.50917051,16.7973147 L2.27243415,17.0600386 C2.27243416,17.2702189 2.32497945,17.4278544 2.32497946,17.6380348 L3.32333515,24.3112616 C3.42842535,25.0468929 3.95387747,25.6774344 4.68950875,25.992705 C5.42514,26.2028853 6.21331516,26.0452513 6.73876605,25.5198004 L16.2494283,16.0091382 C17.6156005,14.6429659 18.3512311,13.066614 18.4037761,11.2275358 C18.3512309,9.28336753 17.7732348,7.75955904 16.5646978,6.55102196 C15.5137959,5.50012012 14.1476234,4.97466887 12.728906,5.02721393 Z M21.1886653,8.02228421 L21.4513914,12.2784372 L23.2904696,12.4360721 L25.7075434,12.6462529 L28.8602489,15.7989584 C28.9653391,15.9040485 29.0704295,16.0091385 29.1755197,16.0091385 C29.3331549,16.0616836 29.3857007,16.1142296 29.4907909,16.1142296 C29.5958811,16.1142296 29.7535155,16.1667732 29.9111507,16.1142281 C30.0162409,16.1142281 30.1738766,16.0616835 30.2789668,15.9565933 C30.436602,15.9040482 30.4891463,15.8515023 30.5942365,15.7464121 C30.6993267,15.6413219 30.7518726,15.5887777 30.8044176,15.4311424 C30.9095078,15.3260522 30.9095072,15.2209619 30.9620522,15.0633266 C30.9620522,14.9582364 31.0145986,14.8006023 30.9620535,14.642967 L30.751873,12.7513438 L33.0113115,12.9089788 L34.7978442,13.0140685 C34.9029344,13.0140685 35.0605693,12.9615231 35.1656595,12.9615231 C35.3232947,12.908978 35.375841,12.8564341 35.4809312,12.7513439 C35.5860214,12.6462537 35.6911104,12.5411624 35.6911103,12.4360722 C35.7436554,12.2784369 35.7962009,12.2258922 35.7436558,12.068257 C35.7436558,11.9631668 35.6911099,11.8055307 35.6911099,11.7004405 C35.743655,11.6478954 35.6911111,11.4902614 35.5860209,11.3851712 C35.4809307,11.280081 35.3758406,11.1749908 35.2707504,11.1749908 C35.1131151,11.1224457 35.0080249,11.1224457 34.8503897,11.0699006 L30.3315119,10.8597201 L30.2264208,10.5444489 C29.9111502,9.70372743 29.5433352,8.91555135 29.1229744,8.17992005 C28.7026137,7.44428876 28.1246178,6.76120288 27.5466218,6.18320686 C26.9160806,5.55266574 26.2855399,5.02721497 25.5499086,4.60685423 C24.8142773,4.18649348 24.0261002,3.81867739 23.1853787,3.50340682 L22.8701085,3.39831673 L22.6599282,-1.01547065 C22.6599282,-1.12056083 22.6073831,-1.2781961 22.554838,-1.43583137 C22.6073831,-1.59346664 22.5022929,-1.69855682 22.3972027,-1.80364701 C22.2921126,-1.90873719 22.1344773,-1.96128228 22.0819322,-2.01382738 C21.9242969,-2.06637247 21.8192064,-2.06637277 21.7141163,-2.06637278 C21.5039359,-2.06637278 21.3988456,-2.0663729 21.2937555,-1.96128272 C21.1361202,-1.90873764 21.0835754,-1.85619225 20.9784852,-1.75110207 C20.873395,-1.64601189 20.8208497,-1.59346711 20.7683046,-1.43583184 C20.7157595,-1.27819657 20.7157596,-1.1731063 20.7157596,-1.06801612 C20.7683047,-0.174749592 20.8208499,0.823607328 20.8208499,1.76941893 L20.8733952,2.87286602 L18.981772,2.66268556 C18.8766818,2.66268555 18.7190464,2.61014041 18.6139562,2.71523059 C18.508866,2.71523058 18.3512311,2.76777552 18.2461409,2.8728657 C18.1410508,2.97795587 18.0359604,2.97795567 17.9308702,3.08304585 C17.82578,3.18813603 17.7732351,3.24068131 17.7206901,3.39831658 C17.668145,3.55595185 17.6155998,3.60849684 17.5630547,3.76613211 C17.5630547,3.87122229 17.5105093,4.02885746 17.6155995,4.13394764 C17.6155995,4.23903782 17.668145,4.39667329 17.7206901,4.44921838 C17.7732352,4.60685366 17.8783249,4.71194374 17.9834151,4.81703392 L21.1886653,8.02228421 Z"></path>
            </g>
        </g>
    </g>
</svg>