<svg width="14" height="16" viewBox="0 0 14 16" fill="none" xmlns="http://www.w3.org/2000/svg">
<path d="M13.8086 13.1064L11.0742 10.3721C10.9375 10.2627 10.7734 10.1807 10.6094 10.1807H10.1719C10.9102 9.22363 11.375 8.02051 11.375 6.68066C11.375 3.56348 8.80469 0.993164 5.6875 0.993164C2.54297 0.993164 0 3.56348 0 6.68066C0 9.8252 2.54297 12.3682 5.6875 12.3682C7 12.3682 8.20312 11.9307 9.1875 11.165V11.6299C9.1875 11.7939 9.24219 11.958 9.37891 12.0947L12.0859 14.8018C12.3594 15.0752 12.7695 15.0752 13.0156 14.8018L13.7812 14.0361C14.0547 13.79 14.0547 13.3799 13.8086 13.1064ZM5.6875 10.1807C3.74609 10.1807 2.1875 8.62207 2.1875 6.68066C2.1875 4.7666 3.74609 3.18066 5.6875 3.18066C7.60156 3.18066 9.1875 4.7666 9.1875 6.68066C9.1875 8.62207 7.60156 10.1807 5.6875 10.1807Z" fill="#B6C2D2"/>
</svg>
