<svg width="27" height="26" viewBox="0 0 27 26" class="star_outlined" fill="none" xmlns="http://www.w3.org/2000/svg">
<path d="M25.4639 8.52772L18.2095 7.48428L14.9301 0.875841C14.3836 -0.266971 12.6942 -0.316659 12.098 0.875841L8.86827 7.48428L1.56421 8.52772C0.272334 8.72647 -0.224534 10.3165 0.719529 11.2605L5.93671 16.3783L4.69452 23.583C4.49577 24.8749 5.88702 25.8687 7.02983 25.2724L13.5389 21.844L19.9983 25.2724C21.1411 25.8687 22.5323 24.8749 22.3336 23.583L21.0914 16.3783L26.3086 11.2605C27.2526 10.3165 26.7558 8.72647 25.4639 8.52772ZM18.5076 15.5337L19.7001 22.3905L13.5389 19.1608L7.32796 22.3905L8.52046 15.5337L3.50203 10.6643L10.4086 9.67053L13.5389 3.4099L16.6195 9.67053L23.5261 10.6643L18.5076 15.5337Z" fill="#344050"/>
</svg>
