<svg width="17" height="14" viewBox="0 0 17 14" fill="none" xmlns="http://www.w3.org/2000/svg">
<path d="M8.5 12H10.5C10.75 12 11 12.2188 11 12.5V13.5C11 13.75 10.75 14 10.5 14H8.5C8.21875 14 8 13.75 8 13.5V12.5C8 12.2188 8.21875 12 8.5 12ZM8.5 8H12.5C12.75 8 13 8.21875 13 8.5V9.5C13 9.75 12.75 10 12.5 10H8.5C8.21875 10 8 9.75 8 9.5V8.5C8 8.21875 8.21875 8 8.5 8ZM16.5 2H8.5C8.21875 2 8 1.75 8 1.5V0.5C8 0.21875 8.21875 0 8.5 0H16.5C16.75 0 17 0.21875 17 0.5V1.5C17 1.75 16.75 2 16.5 2ZM8.5 4H14.5C14.75 4 15 4.21875 15 4.5V5.5C15 5.75 14.75 6 14.5 6H8.5C8.21875 6 8 5.75 8 5.5V4.5C8 4.21875 8.21875 4 8.5 4Z" fill="#344050"/>
<path d="M6.50002 10H5.00002V0.5C5.00002 0.25 4.75002 0 4.50002 0H3.50002C3.21877 0 3.00002 0.25 3.00002 0.5V10H1.50002C1.03127 10 0.812523 10.5625 1.12502 10.875L3.62502 13.875C3.71877 13.9688 3.84377 14 4.00002 14C4.12502 14 4.25002 13.9688 4.34377 13.875L6.84377 10.875C7.15627 10.5625 6.93752 10 6.50002 10Z" fill="#344050"/>
</svg>
