<svg width="17" height="14" viewBox="0 0 17 14" fill="none" xmlns="http://www.w3.org/2000/svg">
<path d="M8.50002 2H10.5C10.75 2 11 1.78125 11 1.5V0.5C11 0.25 10.75 0 10.5 0H8.50002C8.21877 0 8.00002 0.25 8.00002 0.5V1.5C8.00002 1.78125 8.21877 2 8.50002 2ZM8.50002 6H12.5C12.75 6 13 5.78125 13 5.5V4.5C13 4.25 12.75 4 12.5 4H8.50002C8.21877 4 8.00002 4.25 8.00002 4.5V5.5C8.00002 5.78125 8.21877 6 8.50002 6ZM16.5 12H8.50002C8.21877 12 8.00002 12.25 8.00002 12.5V13.5C8.00002 13.7812 8.21877 14 8.50002 14H16.5C16.75 14 17 13.7812 17 13.5V12.5C17 12.25 16.75 12 16.5 12ZM8.50002 10H14.5C14.75 10 15 9.78125 15 9.5V8.5C15 8.25 14.75 8 14.5 8H8.50002C8.21877 8 8.00002 8.25 8.00002 8.5V9.5C8.00002 9.78125 8.21877 10 8.50002 10ZM6.50002 10H5.00002V0.5C5.00002 0.25 4.75002 0 4.50002 0H3.50002C3.21877 0 3.00002 0.25 3.00002 0.5V10H1.50002C1.03127 10 0.812523 10.5625 1.12502 10.875L3.62502 13.875C3.71877 13.9688 3.84377 14 4.00002 14C4.12502 14 4.25002 13.9688 4.34377 13.875L6.84377 10.875C7.15627 10.5625 6.93752 10 6.50002 10Z" fill="#344050"/>
</svg>
